<svg width="32" height="32" viewBox="0 0 32 32" fill="none" xmlns="http://www.w3.org/2000/svg">
<path d="M13.3333 23.9999V14.6666M18.6667 23.9999V14.6666M24 23.9999V14.6666M4 29.3332H28M8 23.9999V14.6666M14.8253 2.9399C15.1909 2.76051 15.5928 2.66724 16 2.66724C16.4072 2.66724 16.8091 2.76051 17.1747 2.9399L27.628 8.0679C27.7634 8.13423 27.8723 8.24448 27.9369 8.38067C28.0016 8.51686 28.0182 8.67094 27.984 8.81777C27.9498 8.9646 27.8668 9.0955 27.7487 9.18911C27.6305 9.28273 27.4841 9.33353 27.3333 9.33323H4.66667C4.51603 9.33323 4.36983 9.28221 4.2519 9.18849C4.13396 9.09477 4.05124 8.96387 4.01722 8.81712C3.9832 8.67037 3.99989 8.51643 4.06455 8.38037C4.12922 8.24432 4.23806 8.13418 4.37334 8.0679L14.8253 2.9399Z" stroke="#75512A" stroke-width="2.13333" stroke-linecap="round" stroke-linejoin="round"/>
</svg>
