<svg width="16" height="16" viewBox="0 0 16 16" fill="none" xmlns="http://www.w3.org/2000/svg">
<g clip-path="url(#clip0_470_3305)">
<path d="M9.16266 11.8239C8.96253 12.4857 8.5943 13.0842 8.0939 13.5612C7.5935 14.0383 6.97801 14.3774 6.30747 14.5457C5.63692 14.714 4.93421 14.7056 4.26788 14.5213C3.60155 14.3371 2.99434 13.9833 2.5055 13.4944C2.01665 13.0056 1.66284 12.3984 1.4786 11.732C1.29435 11.0657 1.28594 10.363 1.45421 9.69244C1.62247 9.02189 1.96165 8.4064 2.43867 7.906C2.91569 7.40561 3.51425 7.03738 4.17599 6.83725M9.99999 3.99992H10.6667V6.66659M4.08932 9.84525L4.66666 9.51192L5.99999 11.8213M14.6667 5.33325C14.6667 7.54239 12.8758 9.33325 10.6667 9.33325C8.45752 9.33325 6.66666 7.54239 6.66666 5.33325C6.66666 3.12411 8.45752 1.33325 10.6667 1.33325C12.8758 1.33325 14.6667 3.12411 14.6667 5.33325Z" stroke="#361C06" stroke-width="1.33333" stroke-linecap="round" stroke-linejoin="round"/>
</g>
<defs>
<clipPath id="clip0_470_3305">
<rect width="16" height="16" fill="white"/>
</clipPath>
</defs>
</svg>
