<svg width="16" height="16" viewBox="0 0 16 16" fill="none" xmlns="http://www.w3.org/2000/svg">
<path d="M10.6667 14V12.6667C10.6667 11.9594 10.3857 11.2811 9.88563 10.781C9.38553 10.281 8.70725 10 8.00001 10H4.00001C3.29277 10 2.61449 10.281 2.11439 10.781C1.6143 11.2811 1.33334 11.9594 1.33334 12.6667V14M10.6667 2.08533C11.2385 2.23358 11.7449 2.56751 12.1065 3.03471C12.468 3.50191 12.6641 4.07593 12.6641 4.66667C12.6641 5.25741 12.468 5.83143 12.1065 6.29863C11.7449 6.76582 11.2385 7.09975 10.6667 7.248M14.6667 14V12.6667C14.6662 12.0758 14.4696 11.5018 14.1076 11.0349C13.7456 10.5679 13.2388 10.2344 12.6667 10.0867M8.66668 4.66667C8.66668 6.13943 7.47277 7.33333 6.00001 7.33333C4.52725 7.33333 3.33334 6.13943 3.33334 4.66667C3.33334 3.19391 4.52725 2 6.00001 2C7.47277 2 8.66668 3.19391 8.66668 4.66667Z" stroke="#361C06" stroke-width="1.33333" stroke-linecap="round" stroke-linejoin="round"/>
</svg>
