<svg width="166" height="166" viewBox="0 0 166 166" fill="none" xmlns="http://www.w3.org/2000/svg">
<circle cx="83" cy="83" r="83" fill="#DCB982"/>
<path d="M112.5 127.25V73.1667C112.5 71.8628 111.982 70.6122 111.06 69.6901C110.138 68.7681 108.887 68.2501 107.583 68.2501H82.9999M53.4999 127.25V73.1667C53.4999 71.8628 54.0179 70.6122 54.94 69.6901C55.862 68.7681 57.1126 68.2501 58.4166 68.2501H82.9999M82.9999 68.2501V127.25M82.9999 127.25H122.333C124.941 127.25 127.442 126.214 129.286 124.37C131.131 122.526 132.167 120.025 132.167 117.417V63.3334C132.167 61.4811 131.645 59.6663 130.659 58.098C129.674 56.5297 128.265 55.2716 126.596 54.4687L87.5183 34.9298C86.1224 34.2081 84.5738 33.8315 83.0024 33.8315C81.4309 33.8315 79.8824 34.2081 78.4864 34.9298L39.3989 54.4687C37.7307 55.2723 36.3232 56.5307 35.3386 58.099C34.354 59.6672 33.8322 61.4817 33.8333 63.3334V117.417C33.8333 120.025 34.8693 122.526 36.7134 124.37C38.5575 126.214 41.0586 127.25 43.6666 127.25H82.9999Z" stroke="#75512A" stroke-width="8.42857" stroke-linecap="round" stroke-linejoin="round"/>
</svg>
