<svg width="80" height="80" viewBox="0 0 80 80" fill="none" xmlns="http://www.w3.org/2000/svg">
  <path
    d="M10.0001 16.6665C9.56064 17.1033 9.21192 17.6227 8.97396 18.1947C8.736 18.7668 8.61349 19.3803 8.61349 19.9998C8.61349 20.6194 8.736 21.2329 8.97396 21.8049C9.21192 22.377 9.56064 22.8964 10.0001 23.3332L13.3334 26.6665C13.7728 27.1033 14.1215 27.6227 14.3595 28.1947C14.5974 28.7668 14.7199 29.3803 14.7199 29.9998C14.7199 30.6194 14.5974 31.2329 14.3595 31.805C14.1215 32.377 13.7728 32.8964 13.3334 33.3332L10.0001 36.6665C9.56064 37.1033 9.21192 37.6227 8.97396 38.1947C8.736 38.7668 8.61349 39.3803 8.61349 39.9998C8.61349 40.6194 8.736 41.2329 8.97396 41.805C9.21192 42.377 9.56064 42.8964 10.0001 43.3332L13.3334 46.6665C13.7728 47.1033 14.1215 47.6227 14.3595 48.1947C14.5974 48.7668 14.7199 49.3803 14.7199 49.9998C14.7199 50.6194 14.5974 51.2329 14.3595 51.805C14.1215 52.377 13.7728 52.8964 13.3334 53.3332L10.0001 56.6665C9.56064 57.1033 9.21192 57.6227 8.97396 58.1947C8.736 58.7668 8.61349 59.3803 8.61349 59.9998C8.61349 60.6194 8.736 61.2329 8.97396 61.805C9.21192 62.377 9.56064 62.8964 10.0001 63.3332L16.6667 69.9998C17.1035 70.4393 17.6229 70.788 18.1949 71.0259C18.767 71.2639 19.3805 71.3864 20.0001 71.3864C20.6196 71.3864 21.2331 71.2639 21.8052 71.0259C22.3772 70.788 22.8966 70.4393 23.3334 69.9998L26.6667 66.6665C27.1035 66.2271 27.6229 65.8784 28.1949 65.6404C28.767 65.4025 29.3805 65.28 30.0001 65.28C30.6196 65.28 31.2331 65.4025 31.8052 65.6404C32.3772 65.8784 32.8966 66.2271 33.3334 66.6665L36.6667 69.9998C37.1035 70.4393 37.6229 70.788 38.1949 71.0259C38.767 71.2639 39.3805 71.3864 40.0001 71.3864C40.6196 71.3864 41.2331 71.2639 41.8052 71.0259C42.3772 70.788 42.8966 70.4393 43.3334 69.9998L46.6667 66.6665C47.1035 66.2271 47.6229 65.8784 48.1949 65.6404C48.767 65.4025 49.3805 65.28 50.0001 65.28C50.6196 65.28 51.2331 65.4025 51.8052 65.6404C52.3772 65.8784 52.8966 66.2271 53.3334 66.6665L56.6667 69.9998C57.1035 70.4393 57.6229 70.788 58.1949 71.0259C58.767 71.2639 59.3805 71.3864 60.0001 71.3864C60.6196 71.3864 61.2331 71.2639 61.8052 71.0259C62.3772 70.788 62.8966 70.4393 63.3334 69.9998L70.0001 63.3332C70.4395 62.8964 70.7882 62.377 71.0262 61.805C71.2641 61.2329 71.3866 60.6194 71.3866 59.9998C71.3866 59.3803 71.2641 58.7668 71.0262 58.1947C70.7882 57.6227 70.4395 57.1033 70.0001 56.6665L66.6667 53.3332C66.2273 52.8964 65.8786 52.377 65.6406 51.805C65.4027 51.2329 65.2802 50.6194 65.2802 49.9998C65.2802 49.3803 65.4027 48.7668 65.6406 48.1947C65.8786 47.6227 66.2273 47.1033 66.6667 46.6665L70.0001 43.3332C70.4395 42.8964 70.7882 42.377 71.0262 41.805C71.2641 41.2329 71.3866 40.6194 71.3866 39.9998C71.3866 39.3803 71.2641 38.7668 71.0262 38.1947C70.7882 37.6227 70.4395 37.1033 70.0001 36.6665L66.6667 33.3332C66.2273 32.8964 65.8786 32.377 65.6406 31.805C65.4027 31.2329 65.2802 30.6194 65.2802 29.9998C65.2802 29.3803 65.4027 28.7668 65.6406 28.1947C65.8786 27.6227 66.2273 27.1033 66.6667 26.6665L70.0001 23.3332C70.4395 22.8964 70.7882 22.377 71.0262 21.8049C71.2641 21.2329 71.3866 20.6194 71.3866 19.9998C71.3866 19.3803 71.2641 18.7668 71.0262 18.1947C70.7882 17.6227 70.4395 17.1033 70.0001 16.6665L63.3334 9.99984C62.8966 9.56042 62.3772 9.2117 61.8052 8.97374C61.2331 8.73578 60.6196 8.61328 60.0001 8.61328C59.3805 8.61328 58.767 8.73578 58.1949 8.97374C57.6229 9.2117 57.1035 9.56042 56.6667 9.99984L53.3334 13.3332C52.8966 13.7726 52.3772 14.1213 51.8052 14.3593C51.2331 14.5972 50.6196 14.7197 50.0001 14.7197C49.3805 14.7197 48.767 14.5972 48.1949 14.3593C47.6229 14.1213 47.1035 13.7726 46.6667 13.3332L43.3334 9.99984C42.8966 9.56042 42.3772 9.2117 41.8052 8.97374C41.2331 8.73578 40.6196 8.61328 40.0001 8.61328C39.3805 8.61328 38.767 8.73578 38.1949 8.97374C37.6229 9.2117 37.1035 9.56042 36.6667 9.99984L33.3334 13.3332C32.8966 13.7726 32.3772 14.1213 31.8052 14.3593C31.2331 14.5972 30.6196 14.7197 30.0001 14.7197C29.3805 14.7197 28.767 14.5972 28.1949 14.3593C27.6229 14.1213 27.1035 13.7726 26.6667 13.3332L23.3334 9.99984C22.8966 9.56042 22.3772 9.2117 21.8052 8.97374C21.2331 8.73578 20.6196 8.61328 20.0001 8.61328C19.3805 8.61328 18.767 8.73578 18.1949 8.97374C17.6229 9.2117 17.1035 9.56042 16.6667 9.99984L10.0001 16.6665Z"
    stroke="#d7e088" stroke-width="6.66667" stroke-linecap="round" stroke-linejoin="round" />
</svg>