<svg width="80" height="80" viewBox="0 0 80 80" fill="none" xmlns="http://www.w3.org/2000/svg">
  <path
    d="M25 13.3335L31.6667 23.3335M31.6667 23.3335V36.6668M31.6667 23.3335H48.3333L55 13.3335M55 10.8614H48.3333L43.3334 13.3333H36.6667L31.6667 10.8614H25C20 10.8614 16.6667 14.1947 16 19.1947L11 37.5281C10.3333 40.1947 12 42.5281 14.3333 42.5281H20V67.5281C20 69.1947 21.6667 70.8614 23.3333 70.8614H56.6667C58.3333 70.8614 60 69.1947 60 67.5281V42.5281H65.6667C68 42.5281 69.6667 40.1947 69 37.5281L64 19.1947C63.3333 14.1947 60 10.8614 55 10.8614Z"
    stroke="#ffbcaa" stroke-width="6.66667" stroke-linecap="round" stroke-linejoin="round" />
</svg>