<svg width="80" height="80" viewBox="0 0 80 80" fill="none" xmlns="http://www.w3.org/2000/svg">
  <path
    d="M40.0052 47.2559H59.447C63.1299 47.2559 66.6619 45.8814 69.2661 43.4349C71.8703 40.9884 73.3333 37.6703 73.3333 34.2104C73.3333 30.7505 71.8703 27.4323 69.2661 24.9858C66.6619 22.5393 63.1299 21.1649 59.4471 21.1649M43.5422 6.98146C44.7001 7.18674 45.8331 7.49138 46.9294 7.88967C47.113 7.95637 47.2956 8.02571 47.4771 8.09764C49.6796 8.97061 51.7223 10.2265 53.5062 11.8174C54.4717 12.6784 55.3484 13.6258 56.1269 14.6451C56.1746 14.7076 56.222 14.7704 56.269 14.8334C57.6851 16.7329 58.7641 18.8743 59.4471 21.1649C59.8359 22.4691 60.0942 23.8147 60.2147 25.1824C60.5449 28.9312 59.8262 32.6979 58.1388 36.0617C56.4514 39.4255 53.8619 42.2539 50.6597 44.2307C47.4574 46.2075 43.7685 47.2549 40.0052 47.2559M40.0052 47.2559H20.553C16.8701 47.2559 13.3381 45.8814 10.7339 43.4349C8.12968 40.9884 6.66666 37.6703 6.66666 34.2104C6.66666 30.7505 8.12968 27.4323 10.7339 24.9858C13.3381 22.5393 16.87 21.1649 20.5529 21.1649C21.4922 18.0145 23.1806 15.1465 25.4648 12.8019M23.731 14.8334C24.2656 14.1164 24.845 13.4381 25.4648 12.8019M25.4648 12.8019C25.66 12.6016 25.8592 12.4054 26.0622 12.2136M43.5422 6.98146C41.1104 6.55038 38.6314 6.56863 36.2257 7.024C34.9656 7.26253 33.7255 7.62099 32.5229 8.09764C30.1177 9.05093 27.9273 10.4511 26.0622 12.2136M26.0622 12.2136C26.204 12.0796 26.3479 11.9475 26.4937 11.8174C28.2777 10.2265 30.3204 8.97061 32.5229 8.09764M36.2257 7.024C36.303 7.00938 36.3803 6.9952 36.4578 6.98146C38.8114 6.56423 41.2093 6.56792 43.5422 6.98146M37.5102 46.4916C37.5102 46.4916 39.5263 41.5004 39.4456 38.8097C39.365 36.119 38.5366 33.504 37.0534 31.2576C35.5702 29.0111 33.4907 27.2221 31.048 26.091C28.6053 24.9598 25.8959 24.5312 23.2234 24.8532C21.8774 27.1845 21.2072 29.8445 21.2879 32.5352C21.3686 35.2258 22.1969 37.8409 23.6801 40.0873C25.1633 42.3337 27.2428 44.1227 29.6855 45.2539C32.1282 46.385 37.5102 46.4916 37.5102 46.4916ZM37.5102 46.4916V73.3301"
    stroke="#ffbcaa" stroke-width="6.66667" stroke-linecap="round" stroke-linejoin="round" />
</svg>