<svg width="80" height="80" viewBox="0 0 80 80" fill="none" xmlns="http://www.w3.org/2000/svg">
  <path
    d="M20 19.9999L14.6667 15.3332C13.9102 14.635 13.3876 13.7203 13.1704 12.714C12.9532 11.7077 13.0519 10.6589 13.453 9.71074C13.8541 8.76262 14.5381 7.96144 15.4116 7.41659C16.2851 6.87175 17.3054 6.6098 18.3333 6.66654H61.6667C62.6268 6.67802 63.5633 6.9657 64.3642 7.4952C65.1652 8.0247 65.7968 8.77363 66.1835 9.65248C66.5702 10.5313 66.6956 11.503 66.5449 12.4512C66.3941 13.3995 65.9735 14.2843 65.3333 14.9999L60 19.9999M20 19.9999H60M20 19.9999V59.9999M60 19.9999V59.9999M60 59.9999H20M60 59.9999L65.3333 64.6665C66.0579 65.3515 66.553 66.2438 66.7506 67.2211C66.9482 68.1984 66.8387 69.2129 66.4371 70.1255C66.0356 71.0382 65.3616 71.8043 64.5075 72.3189C63.6535 72.8335 62.6612 73.0713 61.6667 72.9999H18.3333C17.3732 72.9884 16.4368 72.7007 15.6358 72.1712C14.8348 71.6417 14.2033 70.8928 13.8166 70.0139C13.4299 69.1351 13.3044 68.1635 13.4552 67.2152C13.6059 66.2669 14.0265 65.3821 14.6667 64.6665L20 59.9999M20 36.6665L53.3333 19.9999M73.3333 53.3332V43.3332C73.3333 39.797 71.9286 36.4056 69.4281 33.9051C66.9276 31.4046 63.5362 29.9999 60 29.9999L20 49.9999M26.6667 59.9999L60 43.3332"
    stroke="#ffbcaa" stroke-width="6.66667" stroke-linecap="round" stroke-linejoin="round" />
</svg>