<svg width="80" height="80" viewBox="0 0 80 80" fill="none" xmlns="http://www.w3.org/2000/svg">
  <path
    d="M40 73.3334C58.4095 73.3334 73.3333 58.4095 73.3333 40C73.3333 21.5905 58.4095 6.66669 40 6.66669M40 73.3334C21.5905 73.3334 6.66666 58.4095 6.66666 40C6.66666 21.5905 21.5905 6.66669 40 6.66669M40 73.3334H73.3333M40 6.66669C35.6638 17.3547 35.6638 29.312 40 40M21 12.6667C18.3928 25.7897 20.6436 39.413 27.3333 51M69 56.6667C65.538 52.0785 61.1847 48.2371 56.2013 45.3731C51.2179 42.5091 45.7072 40.6815 40 40M40 40C36.5656 44.6163 32.2193 48.4778 27.2307 51.3448C22.2421 54.2118 16.7176 56.0232 11 56.6667M73.3333 37C70.6667 35 67.6667 32.6667 64.6667 31C54.6667 25.3334 44.3333 22.6667 37 23.6667M26 70.3334C29.3333 69 32.3333 67.6667 35.6667 65.6667C45.6667 60 53 52.3334 56 45.3334"
    stroke="#ffbcaa" stroke-width="6.66667" stroke-linecap="round" stroke-linejoin="round" />
</svg>