<svg width="424" height="676" viewBox="0 0 424 676" fill="none" xmlns="http://www.w3.org/2000/svg">
<g clip-path="url(#clip0_271_6449)">
<mask id="path-1-inside-1_271_6449" fill="white">
<path d="M172 114C172 120.627 177.373 126 184 126H412C418.627 126 424 131.373 424 138V538C424 544.627 418.627 550 412 550H184C177.373 550 172 555.373 172 562V664C172 670.627 166.627 676 160 676H12C5.37258 676 0 670.627 0 664V12C0 5.37257 5.37258 0 12 0H160C166.627 0 172 5.37258 172 12V114Z"/>
</mask>
<path d="M172 114C172 120.627 177.373 126 184 126H412C418.627 126 424 131.373 424 138V538C424 544.627 418.627 550 412 550H184C177.373 550 172 555.373 172 562V664C172 670.627 166.627 676 160 676H12C5.37258 676 0 670.627 0 664V12C0 5.37257 5.37258 0 12 0H160C166.627 0 172 5.37258 172 12V114Z" fill="#F7EACD"/>
<path d="M184 126V133H412V126V119H184V126ZM424 138H417V538H424H431V138H424ZM412 550V543H184V550V557H412V550ZM172 562H165V664H172H179V562H172ZM160 676V669H12V676V683H160V676ZM0 664H7V12H0H-7V664H0ZM12 0V7H160V0V-7H12V0ZM172 12H165V114H172H179V12H172ZM160 0V7C162.761 7 165 9.23857 165 12H172H179C179 1.50659 170.493 -7 160 -7V0ZM0 12H7C7 9.23857 9.23856 7 12 7V0V-7C1.5066 -7 -7 1.50656 -7 12H0ZM12 676V669C9.23858 669 7 666.761 7 664H0H-7C-7 674.493 1.50658 683 12 683V676ZM172 664H165C165 666.761 162.761 669 160 669V676V683C170.493 683 179 674.493 179 664H172ZM184 550V543C173.507 543 165 551.507 165 562H172H179C179 559.239 181.239 557 184 557V550ZM424 538H417C417 540.761 414.761 543 412 543V550V557C422.493 557 431 548.493 431 538H424ZM412 126V133C414.761 133 417 135.239 417 138H424H431C431 127.507 422.493 119 412 119V126ZM184 126V119C181.239 119 179 116.761 179 114H172H165C165 124.493 173.507 133 184 133V126Z" fill="#F0D8AA" mask="url(#path-1-inside-1_271_6449)"/>
<path d="M205.333 358V334.667M218.667 358V334.667M232 358V334.667M182 371.333H242M192 358V334.667M209.063 305.35C209.977 304.902 210.982 304.668 212 304.668C213.018 304.668 214.023 304.902 214.937 305.35L241.07 318.17C241.408 318.336 241.681 318.612 241.842 318.952C242.004 319.293 242.045 319.678 241.96 320.045C241.874 320.412 241.667 320.739 241.372 320.973C241.076 321.207 240.71 321.334 240.333 321.333H183.667C183.29 321.333 182.925 321.206 182.63 320.972C182.335 320.737 182.128 320.41 182.043 320.043C181.958 319.676 182 319.291 182.161 318.951C182.323 318.611 182.595 318.336 182.933 318.17L209.063 305.35Z" stroke="#F0D8AA" stroke-width="6.66667" stroke-linecap="round" stroke-linejoin="round"/>
</g>
<defs>
<clipPath id="clip0_271_6449">
<rect width="424" height="676" fill="white"/>
</clipPath>
</defs>
</svg>
