<svg width="80" height="80" viewBox="0 0 80 80" fill="none" xmlns="http://www.w3.org/2000/svg">
<path d="M60 70.0001V33.3334C60 32.4494 59.6488 31.6015 59.0237 30.9764C58.3986 30.3513 57.5507 30.0001 56.6667 30.0001H40M20 70.0001V33.3334C20 32.4494 20.3512 31.6015 20.9763 30.9764C21.6014 30.3513 22.4493 30.0001 23.3333 30.0001H40M40 30.0001V70.0001M40 70.0001H66.6667C68.4348 70.0001 70.1305 69.2977 71.3807 68.0475C72.631 66.7972 73.3333 65.1015 73.3333 63.3334V26.6668C73.3338 25.411 72.9795 24.1806 72.3114 23.1173C71.6432 22.0541 70.6883 21.2011 69.5567 20.6568L43.0633 7.41009C42.1169 6.9208 41.0671 6.66547 40.0017 6.66547C38.9363 6.66547 37.8864 6.9208 36.94 7.41009L10.44 20.6568C9.30897 21.2016 8.35478 22.0547 7.68724 23.118C7.01969 24.1812 6.66593 25.4113 6.66667 26.6668V63.3334C6.66667 65.1015 7.36905 66.7972 8.61929 68.0475C9.86953 69.2977 11.5652 70.0001 13.3333 70.0001H40Z" stroke="#d7e088" stroke-width="6.66667" stroke-linecap="round" stroke-linejoin="round"/>
</svg>
